<mxfile host="app.diagrams.net" modified="2023-10-04T07:35:57.071Z" agent="Mozilla/5.0 (Windows NT 10.0; Win64; x64) AppleWebKit/537.36 (KHTML, like Gecko) Chrome/116.0.0.0 Safari/537.36" etag="CwEnyp-I31KyLKbTrPPS" version="22.0.2" type="github">
  <diagram name="PÃ¡gina-1" id="UR1YxydPntz3drdoJLed">
    <mxGraphModel dx="819" dy="465" grid="1" gridSize="10" guides="1" tooltips="1" connect="1" arrows="1" fold="1" page="1" pageScale="1" pageWidth="827" pageHeight="1169" math="0" shadow="0">
      <root>
        <mxCell id="0" />
        <mxCell id="1" parent="0" />
        <mxCell id="Kr7YURa-umZb1uitJc3F-1" value="Empleados" style="whiteSpace=wrap;html=1;align=center;" vertex="1" parent="1">
          <mxGeometry x="270" y="360" width="100" height="40" as="geometry" />
        </mxCell>
        <mxCell id="Kr7YURa-umZb1uitJc3F-2" value="Departamentos" style="whiteSpace=wrap;html=1;align=center;" vertex="1" parent="1">
          <mxGeometry x="270" y="560" width="100" height="40" as="geometry" />
        </mxCell>
        <mxCell id="Kr7YURa-umZb1uitJc3F-6" style="edgeStyle=orthogonalEdgeStyle;rounded=0;orthogonalLoop=1;jettySize=auto;html=1;entryX=0.5;entryY=0;entryDx=0;entryDy=0;" edge="1" parent="1" source="Kr7YURa-umZb1uitJc3F-5" target="Kr7YURa-umZb1uitJc3F-2">
          <mxGeometry relative="1" as="geometry" />
        </mxCell>
        <mxCell id="Kr7YURa-umZb1uitJc3F-7" style="edgeStyle=orthogonalEdgeStyle;rounded=0;orthogonalLoop=1;jettySize=auto;html=1;entryX=0.5;entryY=1;entryDx=0;entryDy=0;" edge="1" parent="1" source="Kr7YURa-umZb1uitJc3F-5" target="Kr7YURa-umZb1uitJc3F-1">
          <mxGeometry relative="1" as="geometry" />
        </mxCell>
        <mxCell id="Kr7YURa-umZb1uitJc3F-5" value="Trabaja" style="shape=rhombus;perimeter=rhombusPerimeter;whiteSpace=wrap;html=1;align=center;" vertex="1" parent="1">
          <mxGeometry x="280" y="460" width="80" height="40" as="geometry" />
        </mxCell>
        <mxCell id="Kr7YURa-umZb1uitJc3F-8" value="(1, n)" style="text;strokeColor=none;fillColor=none;spacingLeft=4;spacingRight=4;overflow=hidden;rotatable=0;points=[[0,0.5],[1,0.5]];portConstraint=eastwest;fontSize=12;whiteSpace=wrap;html=1;" vertex="1" parent="1">
          <mxGeometry x="320" y="520" width="40" height="30" as="geometry" />
        </mxCell>
        <mxCell id="Kr7YURa-umZb1uitJc3F-9" value="(1, n)" style="text;strokeColor=none;fillColor=none;spacingLeft=4;spacingRight=4;overflow=hidden;rotatable=0;points=[[0,0.5],[1,0.5]];portConstraint=eastwest;fontSize=12;whiteSpace=wrap;html=1;" vertex="1" parent="1">
          <mxGeometry x="320" y="410" width="40" height="30" as="geometry" />
        </mxCell>
        <mxCell id="Kr7YURa-umZb1uitJc3F-10" value="N : M" style="text;strokeColor=none;fillColor=none;spacingLeft=4;spacingRight=4;overflow=hidden;rotatable=0;points=[[0,0.5],[1,0.5]];portConstraint=eastwest;fontSize=12;whiteSpace=wrap;html=1;" vertex="1" parent="1">
          <mxGeometry x="360" y="465" width="40" height="30" as="geometry" />
        </mxCell>
        <mxCell id="Kr7YURa-umZb1uitJc3F-17" value="Nominas" style="whiteSpace=wrap;html=1;align=center;" vertex="1" parent="1">
          <mxGeometry x="270" y="150" width="100" height="40" as="geometry" />
        </mxCell>
        <mxCell id="Kr7YURa-umZb1uitJc3F-19" style="edgeStyle=orthogonalEdgeStyle;rounded=0;orthogonalLoop=1;jettySize=auto;html=1;" edge="1" parent="1" source="Kr7YURa-umZb1uitJc3F-18" target="Kr7YURa-umZb1uitJc3F-1">
          <mxGeometry relative="1" as="geometry" />
        </mxCell>
        <mxCell id="Kr7YURa-umZb1uitJc3F-20" style="edgeStyle=orthogonalEdgeStyle;rounded=0;orthogonalLoop=1;jettySize=auto;html=1;entryX=0.5;entryY=1;entryDx=0;entryDy=0;" edge="1" parent="1" source="Kr7YURa-umZb1uitJc3F-18" target="Kr7YURa-umZb1uitJc3F-17">
          <mxGeometry relative="1" as="geometry" />
        </mxCell>
        <mxCell id="Kr7YURa-umZb1uitJc3F-18" value="Trabaja" style="shape=rhombus;perimeter=rhombusPerimeter;whiteSpace=wrap;html=1;align=center;" vertex="1" parent="1">
          <mxGeometry x="280" y="255" width="80" height="40" as="geometry" />
        </mxCell>
        <mxCell id="Kr7YURa-umZb1uitJc3F-21" value="(1, n)" style="text;strokeColor=none;fillColor=none;spacingLeft=4;spacingRight=4;overflow=hidden;rotatable=0;points=[[0,0.5],[1,0.5]];portConstraint=eastwest;fontSize=12;whiteSpace=wrap;html=1;" vertex="1" parent="1">
          <mxGeometry x="320" y="200" width="40" height="30" as="geometry" />
        </mxCell>
        <mxCell id="Kr7YURa-umZb1uitJc3F-22" value="(1, 1)" style="text;strokeColor=none;fillColor=none;spacingLeft=4;spacingRight=4;overflow=hidden;rotatable=0;points=[[0,0.5],[1,0.5]];portConstraint=eastwest;fontSize=12;whiteSpace=wrap;html=1;" vertex="1" parent="1">
          <mxGeometry x="320" y="320" width="40" height="30" as="geometry" />
        </mxCell>
        <mxCell id="Kr7YURa-umZb1uitJc3F-23" value="1 : N" style="text;strokeColor=none;fillColor=none;spacingLeft=4;spacingRight=4;overflow=hidden;rotatable=0;points=[[0,0.5],[1,0.5]];portConstraint=eastwest;fontSize=12;whiteSpace=wrap;html=1;" vertex="1" parent="1">
          <mxGeometry x="360" y="265" width="40" height="30" as="geometry" />
        </mxCell>
        <mxCell id="Kr7YURa-umZb1uitJc3F-24" value="Sedes" style="whiteSpace=wrap;html=1;align=center;" vertex="1" parent="1">
          <mxGeometry x="590" y="560" width="100" height="40" as="geometry" />
        </mxCell>
        <mxCell id="Kr7YURa-umZb1uitJc3F-27" style="edgeStyle=orthogonalEdgeStyle;rounded=0;orthogonalLoop=1;jettySize=auto;html=1;" edge="1" parent="1" source="Kr7YURa-umZb1uitJc3F-25" target="Kr7YURa-umZb1uitJc3F-24">
          <mxGeometry relative="1" as="geometry" />
        </mxCell>
        <mxCell id="Kr7YURa-umZb1uitJc3F-28" style="edgeStyle=orthogonalEdgeStyle;rounded=0;orthogonalLoop=1;jettySize=auto;html=1;" edge="1" parent="1" source="Kr7YURa-umZb1uitJc3F-25" target="Kr7YURa-umZb1uitJc3F-2">
          <mxGeometry relative="1" as="geometry" />
        </mxCell>
        <mxCell id="Kr7YURa-umZb1uitJc3F-25" value="Tiene" style="shape=rhombus;perimeter=rhombusPerimeter;whiteSpace=wrap;html=1;align=center;" vertex="1" parent="1">
          <mxGeometry x="440" y="560" width="80" height="40" as="geometry" />
        </mxCell>
        <mxCell id="Kr7YURa-umZb1uitJc3F-29" value="(1, n)" style="text;strokeColor=none;fillColor=none;spacingLeft=4;spacingRight=4;overflow=hidden;rotatable=0;points=[[0,0.5],[1,0.5]];portConstraint=eastwest;fontSize=12;whiteSpace=wrap;html=1;" vertex="1" parent="1">
          <mxGeometry x="374" y="550" width="40" height="30" as="geometry" />
        </mxCell>
        <mxCell id="Kr7YURa-umZb1uitJc3F-30" value="(1, 1)" style="text;strokeColor=none;fillColor=none;spacingLeft=4;spacingRight=4;overflow=hidden;rotatable=0;points=[[0,0.5],[1,0.5]];portConstraint=eastwest;fontSize=12;whiteSpace=wrap;html=1;" vertex="1" parent="1">
          <mxGeometry x="540" y="550" width="40" height="30" as="geometry" />
        </mxCell>
        <mxCell id="Kr7YURa-umZb1uitJc3F-31" value="1 : N" style="text;strokeColor=none;fillColor=none;spacingLeft=4;spacingRight=4;overflow=hidden;rotatable=0;points=[[0,0.5],[1,0.5]];portConstraint=eastwest;fontSize=12;whiteSpace=wrap;html=1;" vertex="1" parent="1">
          <mxGeometry x="460" y="530" width="40" height="30" as="geometry" />
        </mxCell>
      </root>
    </mxGraphModel>
  </diagram>
</mxfile>
